<?xml version="1.0" encoding="UTF-8" standalone="no"?>
<!-- Created with Inkscape (http://www.inkscape.org/) -->

<svg
   xmlns:dc="http://purl.org/dc/elements/1.1/"
   xmlns:cc="http://creativecommons.org/ns#"
   xmlns:rdf="http://www.w3.org/1999/02/22-rdf-syntax-ns#"
   xmlns:svg="http://www.w3.org/2000/svg"
   xmlns="http://www.w3.org/2000/svg"
   xmlns:sodipodi="http://sodipodi.sourceforge.net/DTD/sodipodi-0.dtd"
   xmlns:inkscape="http://www.inkscape.org/namespaces/inkscape"
   width="210mm"
   height="297mm"
   viewBox="0 0 210 297"
   version="1.1"
   id="svg8"
   inkscape:version="0.92.3 (2405546, 2018-03-11)"
   sodipodi:docname="carrot.svg">
  <defs
     id="defs2" />
  <sodipodi:namedview
     id="base"
     pagecolor="#ffffff"
     bordercolor="#666666"
     borderopacity="1.0"
     inkscape:pageopacity="0.0"
     inkscape:pageshadow="2"
     inkscape:zoom="0.49497475"
     inkscape:cx="-214.32544"
     inkscape:cy="470.42147"
     inkscape:document-units="mm"
     inkscape:current-layer="layer1"
     showgrid="false"
     inkscape:snap-global="false"
     inkscape:window-width="1920"
     inkscape:window-height="1017"
     inkscape:window-x="-8"
     inkscape:window-y="-8"
     inkscape:window-maximized="1" />
  <metadata
     id="metadata5">
    <rdf:RDF>
      <cc:Work
         rdf:about="">
        <dc:format>image/svg+xml</dc:format>
        <dc:type
           rdf:resource="http://purl.org/dc/dcmitype/StillImage" />
        <dc:title></dc:title>
      </cc:Work>
    </rdf:RDF>
  </metadata>
  <g
     inkscape:label="Layer 1"
     inkscape:groupmode="layer"
     id="layer1">
    <path
       style="opacity:1;fill:#ff6600;fill-opacity:1;stroke:#000000;stroke-width:4;stroke-linecap:square;stroke-linejoin:round;stroke-miterlimit:4;stroke-dasharray:none;stroke-dashoffset:0;stroke-opacity:1;paint-order:stroke fill markers"
       d="m 62.541077,167.107 c 0,43.10179 -8.735228,78.0427 -19.510676,78.0427 -10.775448,0 -19.510675,-34.94091 -19.510675,-78.0427 0,-43.10179 8.735227,-43.29766 19.510675,-43.29766 10.775448,0 19.510676,0.19587 19.510676,43.29766 z"
       id="path821"
       inkscape:connector-curvature="0"
       sodipodi:nodetypes="sssss" />
    <path
       sodipodi:nodetypes="sssss"
       inkscape:connector-curvature="0"
       id="path832"
       d="m 37.043646,103.87152 c 2.827035,14.26374 3.962033,26.24582 2.53509,26.76273 -1.426944,0.51692 -4.875476,-10.6271 -7.702511,-24.89084 -2.827034,-14.263736 -1.683114,-14.747589 -0.25617,-15.264498 1.426944,-0.516908 2.596561,-0.871112 5.423591,13.392608 z"
       style="opacity:1;fill:#008000;fill-opacity:1;stroke:#000000;stroke-width:0.86690402;stroke-linecap:square;stroke-linejoin:round;stroke-miterlimit:4;stroke-dasharray:none;stroke-dashoffset:0;stroke-opacity:1;paint-order:stroke fill markers" />
    <path
       sodipodi:nodetypes="sssss"
       inkscape:connector-curvature="0"
       id="path824"
       d="m 41.844515,104.3365 c 0,14.76692 -1.197573,26.73786 -2.674853,26.73786 -1.477282,0 -2.674854,-11.97094 -2.674854,-26.73786 0,-14.766904 1.197572,-14.834005 2.674854,-14.834005 1.47728,0 2.674853,0.06712 2.674853,14.834005 z"
       style="opacity:1;fill:#008000;fill-opacity:1;stroke:#000000;stroke-width:0.86690402;stroke-linecap:square;stroke-linejoin:round;stroke-miterlimit:4;stroke-dasharray:none;stroke-dashoffset:0;stroke-opacity:1;paint-order:stroke fill markers" />
    <path
       style="opacity:1;fill:#008000;fill-opacity:1;stroke:#000000;stroke-width:0.86690402;stroke-linecap:square;stroke-linejoin:round;stroke-miterlimit:4;stroke-dasharray:none;stroke-dashoffset:0;stroke-opacity:1;paint-order:stroke fill markers"
       d="m 44.819738,104.60466 c 0,14.76691 -1.197573,26.73786 -2.674854,26.73786 -1.477281,0 -2.674854,-11.97095 -2.674854,-26.73786 0,-14.76691 1.197573,-14.834011 2.674854,-14.834011 1.477281,0 2.674854,0.06712 2.674854,14.834011 z"
       id="path826"
       inkscape:connector-curvature="0"
       sodipodi:nodetypes="sssss" />
    <path
       sodipodi:nodetypes="sssss"
       inkscape:connector-curvature="0"
       id="path828"
       d="m 48.390005,104.60466 c 0,14.76691 -1.197574,26.73786 -2.674854,26.73786 -1.477281,0 -2.674854,-11.97095 -2.674854,-26.73786 0,-14.76691 1.197573,-14.834011 2.674854,-14.834011 1.47728,0 2.674854,0.06712 2.674854,14.834011 z"
       style="opacity:1;fill:#008000;fill-opacity:1;stroke:#000000;stroke-width:0.86690402;stroke-linecap:square;stroke-linejoin:round;stroke-miterlimit:4;stroke-dasharray:none;stroke-dashoffset:0;stroke-opacity:1;paint-order:stroke fill markers" />
    <path
       style="opacity:1;fill:#008000;fill-opacity:1;stroke:#000000;stroke-width:0.86690402;stroke-linecap:square;stroke-linejoin:round;stroke-miterlimit:4;stroke-dasharray:none;stroke-dashoffset:0;stroke-opacity:1;paint-order:stroke fill markers"
       d="m 52.61189,105.74341 c -2.827035,14.26374 -6.275567,25.40776 -7.70251,24.89084 -1.426945,-0.51691 -0.291946,-12.49899 2.535089,-26.76273 2.827034,-14.26374 3.996647,-13.909516 5.423591,-13.392608 1.426944,0.516909 2.57086,1.000781 -0.25617,15.264498 z"
       id="path830"
       inkscape:connector-curvature="0"
       sodipodi:nodetypes="sssss" />
  </g>
</svg>
